<?xml version="1.0" standalone="no"?>
<!DOCTYPE svg PUBLIC "-//W3C//DTD SVG 20010904//EN"
 "http://www.w3.org/TR/2001/REC-SVG-20010904/DTD/svg10.dtd">
<svg version="1.0" xmlns="http://www.w3.org/2000/svg"
 width="458.000000pt" height="458.000000pt" viewBox="0 0 458.000000 458.000000"
 preserveAspectRatio="xMidYMid meet">
<metadata>
Created by potrace 1.14, written by Peter Selinger 2001-2017
</metadata>
<g transform="translate(0.000000,458.000000) scale(0.100000,-0.100000)"
fill="#000000" stroke="none">
<path d="M1710 3703 c-81 -94 -146 -195 -206 -316 -29 -60 -53 -112 -52 -115
1 -4 -1 -14 -4 -22 -51 -136 -75 -375 -55 -542 10 -79 62 -281 86 -331 10 -23
34 -73 51 -111 34 -74 147 -258 180 -294 11 -12 20 -24 20 -26 0 -10 88 -112
183 -212 63 -67 80 -111 30 -78 -44 28 -237 217 -286 279 -12 15 -44 56 -72
91 -72 91 -108 143 -136 194 -13 25 -27 47 -30 50 -13 11 -77 158 -92 210 -22
77 -27 105 -34 180 -6 73 -2 68 -164 195 -46 36 -91 71 -99 78 -72 59 -90 69
-96 53 -9 -23 -9 -211 -1 -274 31 -226 140 -469 287 -636 99 -112 278 -257
392 -317 65 -34 178 -89 233 -114 54 -24 74 -39 75 -56 0 -21 -197 55 -346
132 -83 43 -232 134 -244 149 -3 3 -21 17 -40 30 -31 22 -158 145 -186 182
-47 60 -85 123 -109 180 -28 66 -29 67 -84 83 -63 19 -148 45 -171 53 -8 3
-19 6 -25 7 -5 2 -48 14 -96 29 -47 14 -88 26 -91 26 -5 0 -2 -36 6 -75 10
-45 32 -107 49 -140 11 -22 20 -42 19 -45 -1 -3 8 -21 20 -40 11 -19 20 -36
19 -38 -1 -1 5 -10 14 -18 8 -9 28 -34 44 -57 92 -131 307 -283 521 -367 56
-23 163 -59 190 -65 8 -2 15 -4 15 -6 0 -1 9 -3 20 -5 36 -5 80 -15 110 -24
29 -8 60 -14 140 -25 22 -4 51 -9 65 -11 14 -3 48 -7 75 -9 28 -1 75 -6 105
-9 112 -12 191 -16 200 -11 4 3 0 29 -11 58 -11 28 -22 63 -24 77 -3 14 -11
54 -19 90 -15 68 -16 404 -2 465 47 204 129 386 238 530 34 44 208 218 247
246 l34 25 -2 169 c-1 94 -3 248 -4 343 -1 94 -4 172 -8 172 -7 0 -77 -50
-116 -83 -46 -39 -197 -193 -218 -223 -11 -15 -28 -35 -38 -43 -10 -9 -25 -29
-34 -46 -8 -16 -24 -40 -35 -51 -66 -73 -197 -366 -224 -504 -3 -14 -9 -41
-14 -61 -27 -99 -33 -379 -11 -486 6 -32 13 -69 16 -83 2 -14 4 -25 5 -25 1 0
3 -7 5 -16 1 -9 11 -43 20 -75 9 -33 19 -68 21 -79 4 -19 17 -59 34 -100 5
-11 18 -42 29 -69 12 -27 21 -52 21 -57 0 -17 -25 -9 -39 14 -33 52 -80 137
-75 137 3 0 -3 12 -14 28 -11 15 -23 38 -27 52 -4 14 -11 30 -15 35 -6 8 -38
106 -46 140 -1 6 -7 30 -14 54 -28 105 -38 201 -35 346 3 151 15 229 57 370
11 39 22 75 23 80 5 22 27 74 64 150 25 53 36 85 30 96 -7 14 -27 76 -139 424
-23 71 -44 134 -48 141 -4 7 -28 -13 -62 -53z"/>
<path d="M4418 3314 c-4 -3 -17 -7 -30 -9 -12 -2 -57 -11 -98 -20 -143 -33
-205 -47 -229 -51 -14 -3 -28 -7 -31 -9 -4 -2 -20 -6 -36 -9 -37 -7 -423 -95
-447 -102 -13 -4 6 -24 82 -84 61 -49 100 -86 100 -97 -1 -20 8 -110 19 -195
l7 -57 70 64 c39 36 76 65 84 65 11 0 11 -3 1 -15 -7 -9 -11 -18 -8 -20 3 -3
11 1 17 9 11 13 15 12 30 -2 10 -9 33 -28 51 -42 19 -14 38 -29 45 -35 17 -16
74 -55 79 -55 5 0 84 160 241 485 85 176 88 185 71 185 -7 0 -15 -3 -18 -6z"/>
<path d="M3157 2903 c-12 -12 -7 -22 8 -17 8 4 15 10 15 15 0 11 -14 12 -23 2z"/>
<path d="M3210 2900 c0 -5 10 -10 23 -10 18 0 19 2 7 10 -19 13 -30 13 -30 0z"/>
<path d="M3270 2880 c0 -5 7 -10 16 -10 8 0 12 5 9 10 -3 6 -10 10 -16 10 -5
0 -9 -4 -9 -10z"/>
<path d="M3095 2869 c-11 -17 0 -20 21 -4 17 13 17 14 2 15 -9 0 -20 -5 -23
-11z"/>
<path d="M3320 2842 c0 -5 7 -13 16 -16 10 -4 14 -1 12 6 -5 15 -28 23 -28 10z"/>
<path d="M3061 2826 c-16 -19 -11 -29 8 -17 7 5 12 14 9 21 -3 9 -8 7 -17 -4z"/>
<path d="M2577 2791 l-36 -37 4 -330 c2 -181 4 -382 5 -446 l2 -118 31 -1 c18
0 125 -1 240 -3 114 -1 209 -5 212 -8 3 -2 -11 -23 -30 -45 l-35 -41 -148 -2
c-81 -1 -191 -2 -244 -4 l-98 -2 -1 46 c-3 255 -15 840 -18 863 -1 4 -19 -9
-41 -30 -21 -21 -77 -72 -123 -113 l-85 -75 -1 -467 -2 -468 313 0 313 0 22
33 c45 67 63 62 -252 64 -158 0 -288 3 -290 5 -3 2 -7 143 -10 314 -4 170 -8
343 -9 385 l-2 76 38 33 c22 17 42 29 45 26 3 -3 8 -119 10 -258 6 -413 8
-477 17 -485 4 -4 65 -9 134 -10 70 -1 207 -4 304 -6 98 -2 179 -1 180 4 2 4
46 53 98 109 52 57 96 106 98 110 2 4 -59 8 -135 9 -76 1 -207 3 -290 4 -94 1
-153 6 -154 12 0 5 -2 20 -3 33 -2 15 2 21 12 20 8 -2 17 3 19 10 3 6 -2 12
-11 12 -20 0 -18 -18 -21 195 -2 99 -4 278 -6 398 -2 121 -6 220 -9 222 -4 2
-23 -13 -43 -34z"/>
<path d="M3370 2796 c0 -9 5 -16 10 -16 6 0 10 4 10 9 0 6 -4 13 -10 16 -5 3
-10 -1 -10 -9z"/>
<path d="M3040 2755 c0 -8 2 -15 4 -15 2 0 6 7 10 15 3 8 1 15 -4 15 -6 0 -10
-7 -10 -15z"/>
<path d="M3406 2735 c4 -8 10 -15 15 -15 4 0 6 7 3 15 -4 8 -10 15 -15 15 -4
0 -6 -7 -3 -15z"/>
<path d="M3860 2735 c0 -8 2 -15 4 -15 2 0 6 7 10 15 3 8 1 15 -4 15 -6 0 -10
-7 -10 -15z"/>
<path d="M3030 2705 c0 -20 17 -28 23 -11 3 8 -1 17 -9 20 -8 3 -14 -1 -14 -9z"/>
<path d="M3815 2699 c-11 -17 1 -21 15 -4 8 9 8 15 2 15 -6 0 -14 -5 -17 -11z"/>
<path d="M3430 2680 c0 -19 3 -21 12 -12 9 9 9 15 0 24 -9 9 -12 7 -12 -12z"/>
<path d="M3767 2663 c-12 -12 -7 -22 8 -17 8 4 15 10 15 15 0 11 -14 12 -23 2z"/>
<path d="M3050 2641 c0 -5 5 -13 10 -16 6 -3 10 -2 10 4 0 5 -4 13 -10 16 -5
3 -10 2 -10 -4z"/>
<path d="M3450 2621 c0 -12 5 -21 10 -21 6 0 10 6 10 14 0 8 -4 18 -10 21 -5
3 -10 -3 -10 -14z"/>
<path d="M3710 2615 c0 -9 6 -12 15 -9 8 4 15 10 15 15 0 5 -7 9 -15 9 -8 0
-15 -7 -15 -15z"/>
<path d="M3082 2588 c2 -6 10 -14 16 -16 7 -2 10 2 6 12 -7 18 -28 22 -22 4z"/>
<path d="M3660 2580 c0 -5 4 -10 9 -10 6 0 13 5 16 10 3 6 -1 10 -9 10 -9 0
-16 -4 -16 -10z"/>
<path d="M3450 2566 c0 -2 7 -9 15 -16 12 -10 15 -10 15 4 0 9 -7 16 -15 16
-8 0 -15 -2 -15 -4z"/>
<path d="M3120 2552 c0 -5 7 -15 15 -22 8 -7 15 -8 15 -2 0 5 -7 15 -15 22 -8
7 -15 8 -15 2z"/>
<path d="M3605 2551 c-6 -11 9 -23 19 -14 9 9 7 23 -3 23 -6 0 -12 -4 -16 -9z"/>
<path d="M3545 2520 c-3 -5 3 -10 14 -10 12 0 21 5 21 10 0 6 -6 10 -14 10 -8
0 -18 -4 -21 -10z"/>
<path d="M3175 2510 c3 -5 13 -10 21 -10 8 0 12 5 9 10 -3 6 -13 10 -21 10 -8
0 -12 -4 -9 -10z"/>
<path d="M3460 2494 c0 -17 19 -18 42 0 16 12 15 13 -12 14 -20 0 -30 -4 -30
-14z"/>
<path d="M3241 2491 c-10 -6 -9 -10 3 -14 8 -3 18 -2 21 3 8 13 -9 20 -24 11z"/>
<path d="M3431 2491 c-10 -6 -10 -10 -1 -16 13 -8 24 -1 19 14 -3 6 -10 7 -18
2z"/>
<path d="M3305 2480 c-3 -5 1 -10 10 -10 9 0 13 5 10 10 -3 6 -8 10 -10 10 -2
0 -7 -4 -10 -10z"/>
<path d="M3360 2475 c0 -8 7 -11 20 -8 22 6 19 15 -5 19 -8 1 -15 -4 -15 -11z"/>
<path d="M3457 2435 c-4 -8 -2 -17 3 -20 6 -4 10 -4 10 -1 0 2 3 11 6 20 3 9
2 16 -4 16 -5 0 -12 -7 -15 -15z"/>
<path d="M3444 2379 c-3 -6 -1 -16 5 -22 8 -8 11 -5 11 11 0 24 -5 28 -16 11z"/>
<path d="M3426 2321 c-4 -7 -5 -15 -2 -18 9 -9 19 4 14 18 -4 11 -6 11 -12 0z"/>
<path d="M3385 2261 c-3 -5 -1 -12 4 -15 5 -3 11 1 15 9 6 16 -9 21 -19 6z"/>
<path d="M3347 2213 c-12 -12 -7 -22 8 -17 8 4 15 10 15 15 0 11 -14 12 -23 2z"/>
<path d="M3306 2171 c-4 -7 -5 -15 -2 -18 9 -9 19 4 14 18 -4 11 -6 11 -12 0z"/>
<path d="M3250 2125 c-8 -9 -8 -15 -2 -15 12 0 26 19 19 26 -2 2 -10 -2 -17
-11z"/>
<path d="M3197 2093 c-12 -12 -7 -22 8 -17 8 4 15 10 15 15 0 11 -14 12 -23 2z"/>
<path d="M3130 2060 c0 -13 11 -13 30 0 12 8 11 10 -7 10 -13 0 -23 -4 -23
-10z"/>
<path d="M3087 2043 c-12 -12 -7 -22 8 -17 8 4 15 10 15 15 0 11 -14 12 -23 2z"/>
<path d="M3015 2020 c-3 -5 3 -10 14 -10 12 0 21 5 21 10 0 6 -6 10 -14 10 -8
0 -18 -4 -21 -10z"/>
<path d="M2955 2011 c-6 -11 9 -23 19 -14 9 9 7 23 -3 23 -6 0 -12 -4 -16 -9z"/>
<path d="M2895 2000 c-3 -5 1 -10 10 -10 9 0 13 5 10 10 -3 6 -8 10 -10 10 -2
0 -7 -4 -10 -10z"/>
<path d="M2700 1990 c0 -5 7 -10 15 -10 8 0 15 5 15 10 0 6 -7 10 -15 10 -8 0
-15 -4 -15 -10z"/>
<path d="M2765 1991 c-6 -11 9 -23 19 -14 9 9 7 23 -3 23 -6 0 -12 -4 -16 -9z"/>
<path d="M2825 1990 c-3 -5 3 -10 14 -10 12 0 21 5 21 10 0 6 -6 10 -14 10 -8
0 -18 -4 -21 -10z"/>
<path d="M988 1545 c-2 -2 -30 -6 -63 -10 -33 -3 -96 -12 -140 -21 -44 -8 -93
-17 -110 -19 -45 -8 -58 -11 -80 -18 -11 -3 -33 -9 -50 -12 -135 -26 -147 -35
-158 -115 -3 -19 -26 -118 -52 -220 -56 -223 -56 -220 -46 -220 4 0 50 14 102
30 52 17 103 32 114 34 11 2 56 13 100 24 69 17 129 29 245 47 132 21 215 27
375 28 191 1 277 -7 450 -42 70 -14 221 -64 291 -96 32 -15 77 -29 99 -30 40
-2 105 21 105 38 0 18 83 87 138 114 42 20 70 27 116 27 75 0 122 -21 185 -83
61 -61 103 -80 166 -76 27 1 59 5 70 8 11 4 65 19 120 36 104 31 365 99 409
107 14 2 36 8 48 13 13 5 26 9 31 9 4 0 20 3 35 6 15 4 38 9 52 12 14 3 34 7
45 9 11 3 30 7 43 9 13 3 31 7 40 10 24 7 92 18 124 20 60 3 31 11 -50 13
-361 9 -546 -2 -765 -42 -46 -9 -140 -47 -179 -72 -35 -24 -78 -25 -78 -3 0
11 -95 110 -105 110 -4 0 -13 6 -19 13 -25 31 -120 61 -191 62 -102 0 -178
-37 -295 -143 -30 -28 -57 -50 -60 -48 -3 1 -16 7 -30 13 -67 29 -107 44 -120
46 -8 2 -21 6 -27 10 -7 5 -13 6 -13 3 0 -3 -21 1 -47 9 -150 46 -426 79 -633
78 -216 -2 -484 -37 -602 -79 -20 -7 -40 -9 -43 -4 -3 4 -1 30 5 57 6 26 12
63 14 81 4 38 6 41 32 47 55 14 254 54 289 59 54 7 124 16 160 22 113 17 433
23 550 10 111 -11 150 -17 170 -23 11 -3 29 -8 40 -9 69 -11 220 -63 263 -90
13 -9 28 -14 33 -12 6 2 -16 22 -48 46 -32 23 -62 45 -68 50 -5 4 -41 23 -78
41 -117 55 -281 104 -427 126 -47 8 -476 16 -482 10z"/>
</g>
</svg>
