<?xml version="1.0" encoding="utf-8"?>
<!-- Generator: Adobe Illustrator 26.0.2, SVG Export Plug-In . SVG Version: 6.00 Build 0)  -->
<svg version="1.1" id="Layer_1" xmlns="http://www.w3.org/2000/svg" xmlns:xlink="http://www.w3.org/1999/xlink" x="0px" y="0px"
	 viewBox="0 0 42 42" style="enable-background:new 0 0 42 42;" xml:space="preserve">
<style type="text/css">
	.st0{fill:#DCF1EE;}
</style>
<path class="st0" d="M0,19.7h10.2C10,27.1,7.9,28,5.3,28.2l-1,0.1v8.2l1.2-0.1c3.5-0.2,7.3-0.8,9.8-4c2.2-2.8,3.2-7.3,3.2-14.2V5.5
	H0V19.7z"/>
<path class="st0" d="M23.5,5.5v14.2h10.1c-0.2,7.4-2.2,8.3-4.9,8.5l-1,0.1v8.2l1.1-0.1c3.5-0.2,7.3-0.8,9.9-4
	C41,29.7,42,25.2,42,18.3V5.5H23.5z"/>
</svg>
